# xmcd
#
# Track frame offsets:
#	150
#	23361
#	42809
#	65554
#	81413
#	96504
#	112405
#	132647
#	149701
#	166310
#	180215
#	194179
#	209016
#
# Disc length: 3057 seconds
#
# Revision: 1
# Processed by: cddbd v1.4PL0 Copyright (c) Steve Scherf et al.
# Submitted via: audiograbber 1.82.02
#
DISCID=cd0bef0d
DTITLE=циыяцос лафымайгс - акканаме та пкама лоу
DYEAR=2000
DGENRE=еккгмийа
TTITLE0=ема йемо
TTITLE1=хекы ма цуяисы
TTITLE2=кицо жыс
TTITLE3=упопта
TTITLE4=акканаме тг пкама лоу
TTITLE5=лг ле йоитате
TTITLE6=поиа мувта с'евеи паяеи
TTITLE7=то кахос лоу то текеутаио
TTITLE8=еисаи ема тяемо
TTITLE9=евы викиадес циати
TTITLE10=йаядиа йи ацапг лоу
TTITLE11=текос тоу аиыма
TTITLE12=баяиелаи
EXTD=
EXTT0=
EXTT1=
EXTT2=
EXTT3=
EXTT4=
EXTT5=
EXTT6=
EXTT7=
EXTT8=
EXTT9=
EXTT10=
EXTT11=
EXTT12=
PLAYORDER=
